<svg xmlns="http://www.w3.org/2000/svg" viewBox="0 0 340 340"><path d="M292.4 190.4h-22.2c-5.5 0-13.9 2.3-18.6 5.1L98.8 285.4c-4.7 2.8-13.1 5.1-18.6 5.1H.2v40c0 5.5 4.5 10 10 10h320c5.5 0 10-4.5 10-10v-40h-80c-5.5 0-13.9-2.3-18.6-5.1l-45.8-26.9c-4.7-2.8-4.7-7.4 0-10.1l21.8-12.8c4.7-2.8 12.5-2.8 17.2 0l16.8 9.9c4.7 2.8 13.1 5.1 18.6 5.1h70v-60h-47.8zm0-100h-22.2c-5.5 0-13.9 2.3-18.6 5.1L98.8 185.4c-4.7 2.8-13.1 5.1-18.6 5.1H.2v60h70c5.5 0 13.9-2.3 18.6-5.1l152.8-89.9c4.7-2.8 13.1-5.1 18.6-5.1h80v-60h-47.8zm37.8-90h-320C4.7.4.2 4.9.2 10.4v40h80c5.5 0 13.9 2.3 18.6 5.1l45.8 26.9c4.7 2.8 4.7 7.4 0 10.1l-21.8 12.8c-4.7 2.8-12.5 2.8-17.2 0l-16.8-9.9c-4.7-2.8-13.1-5.1-18.6-5.1H.2v60h70c5.5 0 13.9-2.3 18.6-5.1l152.8-89.9c4.7-2.8 13.1-5.1 18.6-5.1h80v-40c0-5.3-4.5-9.8-10-9.8z"/></svg>