<svg version="1.1" id="Layer_1" xmlns="http://www.w3.org/2000/svg" xmlns:xlink="http://www.w3.org/1999/xlink" x="0" y="0" viewBox="0 0 340 340" xml:space="preserve" enable-background="new 0 0 340 340"><g><path d="M292.4,190.4h-22.2c-5.5,0-13.9,2.3-18.6,5.1L98.8,285.4c-4.7,2.8-13.1,5.1-18.6,5.1H48H10.2h-10v40c0,5.5,4.5,10,10,10 h320c5.5,0,10-4.5,10-10v-40h-10h-37.8h-32.2c-5.5,0-13.9-2.3-18.6-5.1l-45.8-26.9c-4.7-2.8-4.7-7.4,0-10.1l21.8-12.8 c4.7-2.8,12.5-2.8,17.2,0l16.8,9.9c4.7,2.8,13.1,5.1,18.6,5.1h22.2h37.8h10v-60h-10H292.4z"/><path d="M292.4,90.4h-22.2c-5.5,0-13.9,2.3-18.6,5.1L98.8,185.4c-4.7,2.8-13.1,5.1-18.6,5.1H48H10.2h-10v60h10H48h22.2 c5.5,0,13.9-2.3,18.6-5.1l152.8-89.9c4.7-2.8,13.1-5.1,18.6-5.1h32.2h37.8h10v-60h-10H292.4z"/><path d="M330.2,0.4h-320c-5.5,0-10,4.5-10,10v40h10H48h32.2c5.5,0,13.9,2.3,18.6,5.1l45.8,26.9c4.7,2.8,4.7,7.4,0,10.1l-21.8,12.8 c-4.7,2.8-12.5,2.8-17.2,0l-16.8-9.9c-4.7-2.8-13.1-5.1-18.6-5.1H48H10.2h-10v60h10H48h22.2c5.5,0,13.9-2.3,18.6-5.1l152.8-89.9 c4.7-2.8,13.1-5.1,18.6-5.1h32.2h37.8h10v-40C340.2,4.9,335.7,0.4,330.2,0.4z"/></g></svg>